<?xml version="1.0" encoding="utf-8"?>
<!-- Generator: Adobe Illustrator 16.0.0, SVG Export Plug-In . SVG Version: 6.00 Build 0)  -->
<!DOCTYPE svg PUBLIC "-//W3C//DTD SVG 1.1//EN" "http://www.w3.org/Graphics/SVG/1.1/DTD/svg11.dtd">
<svg version="1.1" id="Layer_1" xmlns="http://www.w3.org/2000/svg" xmlns:xlink="http://www.w3.org/1999/xlink" x="0px" y="0px"
	 width="350px" height="42px" viewBox="0 0 350 42" style="enable-background:new 0 0 350 42;" xml:space="preserve">
<g>
	<path style="fill:#1D1D1B;" d="M1.572,35.265L1,34.787l4.46-4.805l0.477-0.52l0.569,0.43c2.879,2.17,6.735,3.587,10.781,3.587
		c2.34,0,4.146-0.509,5.323-1.311c1.173-0.806,1.764-1.854,1.772-3.19c-0.059-2.336-1.233-3.895-4.516-4.344
		c-1.799-0.212-3.191-0.428-5.248-0.682c-7.152-0.898-11.23-5.507-11.188-11.267C3.424,9.305,4.689,6.343,7.068,4.262
		c2.371-2.082,5.812-3.265,10.05-3.261c5.089,0,9.58,1.695,13.294,4.021l0.64,0.399l-4.183,5.877l-0.627-0.374
		c-2.802-1.679-6.07-2.789-9.4-2.789c-1.71,0-3.198,0.425-4.223,1.191c-1.017,0.773-1.637,1.862-1.646,3.471
		c0.031,1.725,1.203,3.497,4.988,4.082c1.047,0.157,2.541,0.366,4.425,0.574c7.757,0.853,11.577,6.107,11.538,11.525
		c0.007,3.629-1.448,6.611-4.05,8.608c-2.598,2-6.258,3.028-10.644,3.028h-0.025C11.214,40.615,5.884,38.862,1.572,35.265"/>
	<path style="fill:#1D1D1B;" d="M58.423,11.872l4.739,13.538h-9.474L58.423,11.872z M55.385,1.316L40.397,40.295h7.982l3.068-8.378
		h13.955l3.067,8.378h7.982L61.47,1.316H55.385z"/>
	<polygon style="fill:#1D1D1B;" points="110.926,1.316 110.926,26.407 94.059,1.316 87.191,1.316 87.191,2.037 87.191,40.295 
		94.733,40.295 94.733,15.201 111.606,40.295 118.47,40.295 118.47,1.316 	"/>
	<path style="fill:#1D1D1B;" d="M146.833,40.299h-14.245V2.037V1.316h14.638c5.463-0.015,10.061,2.353,12.75,6.682
		c0.993,1.608,1.587,2.895,1.884,4.719c0.297,1.819,0.336,4.159,0.336,8.088c0,4.234-0.107,6.736-0.456,8.581
		c-0.348,1.845-0.982,3.021-1.891,4.356c-2.445,3.654-6.835,6.557-12.987,6.557H146.833z M146.558,33.479
		c3.232-0.018,5.293-1,6.718-2.951c0.64-0.919,0.929-1.47,1.134-2.76c0.198-1.283,0.244-3.276,0.244-6.747
		c0-3.367-0.046-5.448-0.279-6.873c-0.236-1.424-0.601-2.166-1.357-3.138c-1.756-2.206-3.343-2.837-6.459-2.874h-6.429v25.343
		H146.558z"/>
	<polygon style="fill:#1D1D1B;" points="238.117,1.316 229.604,28.27 221.087,1.316 213.117,1.316 226.714,40.295 232.494,40.295 
		246.089,1.316 	"/>
	<polygon style="fill:#1D1D1B;" points="258.39,1.316 258.39,2.037 258.39,40.295 265.935,40.295 265.935,1.316 	"/>
	<path style="fill:#1D1D1B;" d="M278.362,35.266l-0.572-0.479l4.456-4.805l0.48-0.52l0.569,0.428
		c2.877,2.173,6.736,3.59,10.781,3.587c2.337,0.003,4.146-0.506,5.323-1.308c1.173-0.806,1.76-1.855,1.771-3.191
		c-0.061-2.336-1.23-3.894-4.514-4.346c-1.799-0.209-3.191-0.426-5.248-0.684c-7.152-0.893-11.23-5.502-11.188-11.261
		c-0.008-3.383,1.258-6.344,3.633-8.425c2.375-2.085,5.813-3.266,10.057-3.261c5.086,0,9.578,1.696,13.288,4.021l0.643,0.399
		l-4.185,5.876l-0.629-0.374c-2.802-1.679-6.07-2.789-9.396-2.789c-1.714,0-3.2,0.421-4.222,1.191
		c-1.018,0.773-1.637,1.862-1.648,3.47c0.033,1.724,1.205,3.495,4.987,4.082c1.05,0.158,2.544,0.367,4.428,0.575
		c7.753,0.855,11.573,6.103,11.535,11.524c0.01,3.63-1.449,6.612-4.047,8.609c-2.597,2-6.262,3.027-10.644,3.027H294
		C288.007,40.615,282.678,38.862,278.362,35.266"/>
	<polygon style="fill:#1D1D1B;" points="318.832,1.316 318.832,7.821 329.695,7.821 329.695,40.295 337.232,40.295 337.232,7.821 
		348.104,7.821 348.104,1.316 	"/>
	<path style="fill:#1D1D1B;" d="M204.859,34.467l0.707,0.057l-0.062,6.704l-0.788-0.032c-1.562-0.047-3.944-0.24-7.295-2.686
		c-2.155,1.258-4.845,2.106-7.982,2.106c-6.56-0.005-11.087-3.658-13.093-7.125c-0.651-1.113-1.157-2.1-1.433-3.854
		c-0.281-1.762-0.389-4.312-0.389-8.832c0-4.516,0.107-7.067,0.389-8.825c0.275-1.759,0.781-2.746,1.433-3.858
		c2.006-3.468,6.533-7.118,13.093-7.122c6.555,0.004,11.089,3.654,13.093,7.122c0.65,1.112,1.156,2.099,1.432,3.855
		c0.281,1.76,0.393,4.311,0.393,8.827c0,4.521-0.111,7.07-0.393,8.832c-0.275,1.755-0.781,2.741-1.432,3.854
		c-0.06,0.109-0.127,0.216-0.194,0.321C203.094,34.163,203.91,34.389,204.859,34.467 M189.438,33.478
		c0.829,0,1.571-0.117,2.243-0.322c-0.93-1.032-1.918-2.194-2.973-3.513c-1.762-2.204-4.176-3.311-6.52-3.844
		c0.223,3.264,0.661,3.883,1.722,5.22C185.021,32.343,186.845,33.474,189.438,33.478 M189.438,8.136
		c-2.594,0.004-4.421,1.142-5.527,2.463c-0.71,0.877-1.089,1.418-1.382,2.59c-0.269,1.096-0.41,2.757-0.449,5.559
		c3.909,0.618,8.785,2.262,12.206,6.442c0.781,0.958,1.488,1.895,2.156,2.78c0.258-1.375,0.371-3.501,0.367-7.166
		c0-3.835-0.12-5.996-0.406-7.358c-0.297-1.355-0.683-1.907-1.438-2.844C193.855,9.277,192.029,8.14,189.438,8.136"/>
	<rect x="1.001" y="1" style="fill:none;" width="347.103" height="40.228"/>
</g>
</svg>
